<svg xmlns="http://www.w3.org/2000/svg" xmlns:xlink="http://www.w3.org/1999/xlink" width="500" zoomAndPan="magnify" viewBox="0 0 375 374.999991" height="500" preserveAspectRatio="xMidYMid meet" version="1.0"><defs><clipPath id="a4c41b7d39"><path d="M 258 61.640625 L 375 61.640625 L 375 313.640625 L 258 313.640625 Z M 258 61.640625 " clip-rule="nonzero"/></clipPath><clipPath id="bdbda05c1a"><path d="M 109 177 L 292 177 L 292 313.640625 L 109 313.640625 Z M 109 177 " clip-rule="nonzero"/></clipPath></defs><path fill="#5e2590" d="M 16.273438 187.816406 C 21.765625 187.816406 26.21875 183.359375 26.21875 177.859375 C 26.21875 172.359375 21.765625 167.902344 16.273438 167.902344 L 12.515625 167.902344 C 8.960938 167.902344 5.675781 169.800781 3.902344 172.882812 L 3.898438 172.882812 C 0.0703125 179.519531 4.855469 187.816406 12.515625 187.816406 L 16.273438 187.816406 " fill-opacity="1" fill-rule="nonzero"/><path fill="#5e2590" d="M 47.859375 187.816406 L 86.449219 187.816406 C 91.941406 187.816406 96.394531 183.359375 96.394531 177.859375 C 96.394531 172.359375 91.941406 167.902344 86.449219 167.902344 L 47.859375 167.902344 C 42.367188 167.902344 37.914062 172.359375 37.914062 177.859375 C 37.914062 183.359375 42.367188 187.816406 47.859375 187.816406 " fill-opacity="1" fill-rule="nonzero"/><path fill="#762e99" d="M 39.683594 229.453125 C 39.902344 229.464844 40.125 229.476562 40.347656 229.476562 L 112.34375 229.476562 C 117.839844 229.476562 122.289062 225.019531 122.289062 219.519531 C 122.289062 214.019531 117.839844 209.558594 112.34375 209.558594 L 59.785156 209.558594 C 52.445312 215.511719 45.707031 222.179688 39.683594 229.453125 " fill-opacity="1" fill-rule="nonzero"/><g clip-path="url(#a4c41b7d39)"><path fill="#5e2590" d="M 371.445312 189.25 L 325.75 110.019531 C 332.027344 103.84375 350.191406 84.183594 352.28125 61.648438 C 352.277344 61.664062 334.496094 122.863281 258.453125 121.9375 L 294.785156 206.375 C 302.222656 223.652344 297.855469 243.050781 285.269531 255.539062 C 283.277344 257.515625 281.078125 259.3125 278.691406 260.90625 C 286.117188 277.085938 290.609375 294.890625 291.480469 313.648438 L 299.703125 313.648438 C 306.667969 313.648438 313.101562 309.929688 316.585938 303.890625 L 371.445312 208.765625 C 374.925781 202.730469 374.925781 195.289062 371.445312 189.25 " fill-opacity="1" fill-rule="nonzero"/></g><path fill="#5e2590" d="M 92.179688 146.160156 L 127.941406 146.160156 C 133.433594 146.160156 137.886719 141.703125 137.886719 136.203125 C 137.886719 130.703125 133.433594 126.246094 127.941406 126.246094 L 91.929688 126.246094 C 87.824219 126.246094 84.078125 128.78125 82.601562 132.746094 C 79.878906 140.054688 84.394531 146.160156 92.179688 146.160156 " fill-opacity="1" fill-rule="nonzero"/><path fill="#5e2590" d="M 31.734375 224.496094 C 33.398438 227.382812 36.386719 229.234375 39.683594 229.453125 C 45.707031 222.179688 52.445312 215.511719 59.785156 209.558594 L 40.347656 209.558594 C 32.691406 209.558594 27.90625 217.859375 31.734375 224.496094 " fill-opacity="1" fill-rule="nonzero"/><g clip-path="url(#bdbda05c1a)"><path fill="#762e99" d="M 271.589844 264.769531 C 249.078125 274.480469 222.960938 264.085938 213.257812 241.546875 C 206.554688 225.96875 209.445312 208.667969 219.304688 196.261719 C 198.632812 184.550781 174.746094 177.859375 149.296875 177.859375 C 135.585938 177.859375 122.332031 179.804688 109.785156 183.425781 C 111.574219 186.074219 114.601562 187.816406 118.035156 187.816406 L 180.796875 187.816406 C 186.6875 187.816406 191.703125 192.402344 191.910156 198.292969 C 192.128906 204.476562 187.1875 209.558594 181.058594 209.558594 L 143.933594 209.558594 C 138.4375 209.558594 133.984375 214.019531 133.984375 219.519531 C 133.984375 225.019531 138.4375 229.476562 143.933594 229.476562 L 166.875 229.476562 C 172.761719 229.476562 177.777344 234.058594 177.988281 239.949219 C 178.207031 246.132812 173.265625 251.21875 167.132812 251.21875 L 143.351562 251.21875 C 135.566406 251.21875 131.050781 257.328125 133.769531 264.632812 C 135.246094 268.597656 138.988281 271.132812 143.097656 271.132812 L 195.824219 271.132812 C 201.714844 271.132812 206.730469 275.71875 206.9375 281.609375 C 207.15625 287.792969 202.214844 292.875 196.085938 292.875 L 166.75 292.875 L 173.101562 303.890625 C 176.585938 309.929688 183.019531 313.648438 189.984375 313.648438 L 291.480469 313.648438 C 290.609375 294.890625 286.117188 277.085938 278.691406 260.90625 C 276.484375 262.382812 274.113281 263.679688 271.589844 264.769531 " fill-opacity="1" fill-rule="nonzero"/></g><path fill="#5e2590" d="M 219.304688 196.261719 C 223.710938 190.71875 229.503906 186.152344 236.453125 183.152344 C 240.214844 181.527344 244.078125 180.46875 247.945312 179.933594 C 254.378906 179.039062 260.832031 179.597656 266.878906 181.429688 L 245.6875 132.167969 L 230.78125 97.542969 C 230.78125 97.542969 272.796875 100.90625 310.683594 87.773438 C 307.5 85.59375 303.691406 84.367188 299.703125 84.367188 L 189.984375 84.367188 C 183.019531 84.367188 176.585938 88.085938 173.101562 94.125 L 167.121094 104.5 L 189.128906 104.5 C 195.019531 104.5 200.035156 109.085938 200.242188 114.980469 C 200.460938 121.160156 195.519531 126.246094 189.390625 126.246094 L 159.527344 126.246094 C 154.035156 126.246094 149.582031 130.703125 149.582031 136.203125 C 149.582031 141.703125 154.035156 146.160156 159.527344 146.160156 L 224.515625 146.160156 C 230.40625 146.160156 235.421875 150.746094 235.628906 156.636719 C 235.847656 162.820312 230.90625 167.902344 224.777344 167.902344 L 118.035156 167.902344 C 112.542969 167.902344 108.089844 172.359375 108.089844 177.859375 C 108.089844 179.921875 108.714844 181.835938 109.785156 183.425781 C 122.332031 179.804688 135.585938 177.859375 149.296875 177.859375 C 174.746094 177.859375 198.632812 184.550781 219.304688 196.261719 " fill-opacity="1" fill-rule="nonzero"/></svg>